# xmcd
#
# Track frame offsets:
# 150
# 18037
# 33535
# 48492
# 70285
# 87717
# 103982
# 115980
# 129957
# 146437
# 168222
# 182502
# 204622
# 222037
# 233502
# 243885
# 267667
#
# Disc length: 3789 seconds
#
#
# Revision: 2
# Processed by: cddbd v1.5.2PL0 Copyright (c) Steve Scherf et al.
# Submitted via: FreeRIP 2.96 
#
DISCID=ee0ecb11
DTITLE=Various Artist - In The Tradition: A Collection Of Classic Blues Recordings Disc 1
DYEAR=1997
DGENRE=Blues
TTITLE0=Dead Stray Dog
TTITLE1=Don't Dog Your Woman
TTITLE2=Hobo Blues
TTITLE3=Going Train Blues
TTITLE4=Travelling Back Home
TTITLE5=Feel Like Robbin' The Grave
TTITLE6=Mistake In Life
TTITLE7=Big Walter's Boogie
TTITLE8=Mean And Evil
TTITLE9=Dark Room
TTITLE10=What Has Annie Got
TTITLE11=Strollin'
TTITLE12=Death Of Ealase
TTITLE13=Move On Up A Little Higher
TTITLE14=He's A Friend Of Mine
TTITLE15=Trouble's All I See
TTITLE16=New Your Boogie
EXTD=YEAR: 1997
EXTT0=Louisiana Red
EXTT1=Brownie McGhee
EXTT2=John Lee Hooker
EXTT3=Louisiana Red
EXTT4=Johnny Shines
EXTT5=Sonny Terry
EXTT6=Roosevelt Sykes
EXTT7=Walter "Shakey" Hoston
EXTT8=Brownie McGhee
EXTT9=John Lee Hooker
EXTT10=Alec Seward
EXTT11=Peg Leg Sam
EXTT12=Louisiana Red
EXTT13=Mari Knight
EXTT14=The Wooten Singers
EXTT15=Johnny Shines
EXTT16=Roosevelt Sykes
PLAYORDER=
